Coordinates
version=1
nRows=12
nColumns=46
inDegrees=yes

Units are S.I. units (second, meters, Newtons, ...)
Angles are in degrees.

endheader
time	pelvis_tilt	pelvis_list	pelvis_rotation	pelvis_tx	pelvis_ty	pelvis_tz	bb_angle	bb_tx	bb_ty	bb_tz	hip_flexion_r	hip_adduction_r	hip_rotation_r	knee_angle_r	knee_angle_r_beta	ankle_angle_r	subtalar_angle_r	mtp_angle_r	crank_angle_r	hip_flexion_l	hip_adduction_l	hip_rotation_l	knee_angle_l	knee_angle_l_beta	ankle_angle_l	subtalar_angle_l	mtp_angle_l	crank_angle_l	lumbar_extension	lumbar_bending	lumbar_rotation	arm_flex_r	arm_add_r	arm_rot_r	elbow_flex_r	pro_sup_r	wrist_flex_r	wrist_dev_r	arm_flex_l	arm_add_l	arm_rot_l	elbow_flex_l	pro_sup_l	wrist_flex_l	wrist_dev_l
      0.00000000	    -17.49143379	     -3.68542485	      0.23187044	      0.06097424	      1.09062219	     -0.27635923	      0.00000000	      0.50000000	      0.00000000	      0.25000000	     81.60965709	     -2.75709566	     -1.13516471	     84.30225478	      1.47135191	     13.05508852	     -8.37721788	      0.00000000	      0.00000000	     52.55225034	    -10.32343538	     -0.05550588	     72.26041872	      1.26118223	     10.79259963	     -2.27778953	      0.00000000	      0.00000000	    -49.55502493	      1.55272302	      4.98002314	     89.63483318	    -10.07776347	     38.93531039	     28.87509702	     23.68699163	      0.00000000	      0.00000000	     89.57022019	     -6.45074370	     43.54709671	     29.82274896	     24.45993220	      0.00000000	      0.00000000
      0.00500000	    -17.45602992	     -3.63095407	      0.16874791	      0.06102758	      1.09068596	     -0.27631601	      0.00000000	      0.50000000	      0.00000000	      0.25000000	     81.62495821	     -2.70897830	     -1.06784189	     84.38052356	      1.47271796	     13.02425386	     -8.43015796	      0.00000000	      0.00000000	     52.44291369	    -10.32564464	     -0.15251652	     72.17654860	      1.25971842	     10.75456682	     -2.37351305	      0.00000000	      0.00000000	    -49.60758683	      1.48194958	      4.96189150	     89.63467707	     -9.93129100	     38.35749496	     28.53493247	     25.38479217	      0.00000000	      0.00000000	     89.56886376	     -6.38392020	     42.99218740	     29.45850210	     26.13714052	      0.00000000	      0.00000000
      0.01000000	    -17.48764194	     -3.68214384	      0.15804833	      0.06103018	      1.09056106	     -0.27630093	      0.00000000	      0.50000000	      0.00000000	      0.25000000	     81.69580165	     -2.67607204	     -1.09972545	     84.44631002	      1.47386615	     13.03057804	     -8.43802001	      0.00000000	      0.00000000	     52.47175593	    -10.40307281	     -0.12434479	     72.14280207	      1.25912943	     10.85112234	     -2.11655441	      0.00000000	      0.00000000	    -49.55344841	      1.51696409	      5.02255185	     89.63582448	     -9.94478277	     38.47841043	     28.30450029	     26.25246893	      0.00000000	      0.00000000	     89.56658091	     -6.42461518	     43.15674472	     29.32068191	     27.09280137	      0.00000000	      0.00000000
      0.01500000	    -17.43769785	     -3.72937014	      0.27155644	      0.06100279	      1.09068750	     -0.27661742	      0.00000000	      0.50000000	      0.00000000	      0.25000000	     81.68063883	     -2.79769598	     -1.16648714	     84.52099179	      1.47516959	     13.01008497	     -8.37311993	      0.00000000	      0.00000000	     52.39762506	    -10.26866495	      0.04008744	     72.05386153	      1.25757712	     10.86760197	     -2.22731415	      0.00000000	      0.00000000	    -49.62223864	      1.64818207	      4.97341847	     89.64183411	    -10.16380441	     39.19331863	     28.35470328	     27.13035681	      0.00000000	      0.00000000	     89.57037261	     -6.69097748	     43.77677510	     29.44022376	     28.14925376	      0.00000000	      0.00000000
      0.02000000	    -17.46191174	     -3.71191747	      0.18508302	      0.06096544	      1.09075733	     -0.27644772	      0.00000000	      0.50000000	      0.00000000	      0.25000000	     81.76734573	     -2.71417012	     -1.12905855	     84.61441174	      1.47680008	     13.00266309	     -8.45138099	      0.00000000	      0.00000000	     52.36982712	    -10.34275556	     -0.05340204	     71.97315627	      1.25616855	     10.83542360	     -2.20066370	      0.00000000	      0.00000000	    -49.57983767	      1.58003755	      5.01486746	     89.63897380	    -10.06770016	     38.72692355	     28.18614616	     27.62756288	      0.00000000	      0.00000000	     89.56861517	     -6.60871412	     43.44983500	     29.18343459	     28.69489697	      0.00000000	      0.00000000
      0.02500000	    -17.44739460	     -3.73115487	      0.20532963	      0.06098194	      1.09079797	     -0.27649946	      0.00000000	      0.50000000	      0.00000000	      0.25000000	     81.78223285	     -2.72771489	     -1.14948355	     84.67474214	      1.47785304	     12.99203227	     -8.46624543	      0.00000000	      0.00000000	     52.32921063	    -10.32931787	     -0.03049219	     71.90528482	      1.25498397	     10.81306795	     -2.24417178	      0.00000000	      0.00000000	    -49.59621011	      1.61427887	      4.97970617	     89.63999951	    -10.18421498	     39.33615754	     28.31931969	     27.47833018	      0.00000000	      0.00000000	     89.56936084	     -6.82837326	     44.01743405	     29.36952474	     28.70791225	      0.00000000	      0.00000000
      0.03000000	    -17.47003458	     -3.75197934	      0.18153784	      0.06095087	      1.09079189	     -0.27647979	      0.00000000	      0.50000000	      0.00000000	      0.25000000	     81.83746861	     -2.68714478	     -1.15505727	     84.73824725	      1.47896142	     12.99290741	     -8.51396363	      0.00000000	      0.00000000	     52.32622817	    -10.35698242	     -0.02788419	     71.84268767	      1.25389144	     10.81194809	     -2.24445640	      0.00000000	      0.00000000	    -49.57853767	      1.60962808	      5.02934244	     89.63740108	    -10.08312979	     38.84117763	     28.22561381	     27.81574930	      0.00000000	      0.00000000	     89.56893342	     -6.62096684	     43.55122514	     29.15188699	     29.06005148	      0.00000000	      0.00000000
      0.03500000	    -17.48919105	     -3.80390819	      0.23062081	      0.06090635	      1.09077142	     -0.27656878	      0.00000000	      0.50000000	      0.00000000	      0.25000000	     81.89232042	     -2.73002696	     -1.21160866	     84.80865566	      1.48019028	     12.98092108	     -8.53008489	      0.00000000	      0.00000000	     52.34470139	    -10.33860784	      0.05930576	     71.77439908	      1.25269958	     10.75828154	     -2.25007608	      0.00000000	      0.00000000	    -49.56035919	      1.69699630	      5.08868062	     89.63495180	    -10.06582472	     38.41720093	     28.24993767	     27.64619360	      0.00000000	      0.00000000	     89.56820704	     -6.44465159	     43.10447700	     28.99625645	     28.82292767	      0.00000000	      0.00000000
      0.04000000	    -17.47593627	     -3.77482254	      0.17668369	      0.06095161	      1.09082988	     -0.27648249	      0.00000000	      0.50000000	      0.00000000	      0.25000000	     81.91370213	     -2.66670451	     -1.15501105	     84.86819454	      1.48122942	     12.99495959	     -8.53737901	      0.00000000	      0.00000000	     52.27208944	    -10.36665226	     -0.02498104	     71.69111522	      1.25124601	     10.76045126	     -2.25374044	      0.00000000	      0.00000000	    -49.58861004	      1.64102858	      5.05031724	     89.64050555	    -10.21593474	     39.44287475	     28.35871088	     27.44485604	      0.00000000	      0.00000000	     89.56795132	     -6.84108583	     44.03707170	     29.39176940	     28.76494991	      0.00000000	      0.00000000
      0.04500000	    -17.51082909	     -3.83489462	      0.21976430	      0.06090360	      1.09077193	     -0.27655530	      0.00000000	      0.50000000	      0.00000000	      0.25000000	     81.98254823	     -2.69112052	     -1.21396120	     84.93194473	      1.48234208	     12.95539311	     -8.61217882	      0.00000000	      0.00000000	     52.31094257	    -10.35847083	      0.06463899	     71.62890835	      1.25016029	     10.76757276	     -2.21261331	      0.00000000	      0.00000000	    -49.55911405	      1.72101531	      5.16010125	     89.63451570	    -10.01087939	     38.11079868	     28.14625101	     27.88327354	      0.00000000	      0.00000000	     89.56351575	     -6.32039514	     42.74957786	     28.92349295	     29.03835184	      0.00000000	      0.00000000
      0.05000000	    -17.49021561	     -3.78367944	      0.11799636	      0.06097625	      1.09084483	     -0.27635659	      0.00000000	      0.50000000	      0.00000000	      0.25000000	     82.00077645	     -2.58183086	     -1.12261859	     84.98887708	      1.48333573	     12.98267641	     -8.55020599	      0.00000000	      0.00000000	     52.21062934	    -10.43766922	     -0.08648415	     71.52750123	      1.24839040	     10.72049786	     -2.09143207	      0.00000000	      0.00000000	    -49.58562784	      1.58608651	      5.10980167	     89.63749221	    -10.31035591	     39.62749382	     28.39718378	     27.52826792	      0.00000000	      0.00000000	     89.56741476	     -6.86012603	     44.18640796	     29.50586403	     28.90977437	      0.00000000	      0.00000000
      0.05500000	    -17.49977288	     -3.80393712	      0.16992653	      0.06096668	      1.09084825	     -0.27648969	      0.00000000	      0.50000000	      0.00000000	      0.25000000	     82.04850197	     -2.63416890	     -1.15684076	     85.06955332	      1.48474380	     12.96036418	     -8.67350201	      0.00000000	      0.00000000	     52.20006125	    -10.36661934	     -0.01951807	     71.44918260	      1.24702348	     10.70424982	     -2.30629448	      0.00000000	      0.00000000	    -49.58527725	      1.66325526	      5.09748022	     89.64142066	    -10.35615997	     39.69903582	     28.44439914	     27.66900426	      0.00000000	      0.00000000	     89.56855790	     -6.87413888	     44.11909803	     29.36170050	     29.28148245	      0.00000000	      0.00000000
